<mxfile host="Electron" modified="2023-05-01T01:26:53.841Z" agent="Mozilla/5.0 (Windows NT 10.0; Win64; x64) AppleWebKit/537.36 (KHTML, like Gecko) draw.io/21.1.2 Chrome/106.0.5249.199 Electron/21.4.3 Safari/537.36" etag="nbbacKs4XUunGIR2Sk6K" version="21.1.2" type="device">
  <diagram name="Page-1" id="TKbwjN6o_ijqUqL9hRBT">
    <mxGraphModel dx="792" dy="838" grid="1" gridSize="10" guides="1" tooltips="1" connect="1" arrows="1" fold="1" page="1" pageScale="1" pageWidth="850" pageHeight="1100" math="0" shadow="0">
      <root>
        <mxCell id="0" />
        <mxCell id="1" parent="0" />
        <mxCell id="kMj5f04dgcrr9fPWQqDN-1" value="Write Capacity Units (WCU) - Formula" style="text;html=1;align=center;verticalAlign=middle;resizable=0;points=[];autosize=1;strokeColor=none;fillColor=none;fontSize=22;fontStyle=1" parent="1" vertex="1">
          <mxGeometry x="210" y="290" width="420" height="40" as="geometry" />
        </mxCell>
        <mxCell id="kMj5f04dgcrr9fPWQqDN-2" value="items_per_second" style="text;html=1;align=center;verticalAlign=middle;resizable=0;points=[];autosize=1;strokeColor=none;fillColor=none;fontSize=20;" parent="1" vertex="1">
          <mxGeometry x="200" y="365" width="190" height="40" as="geometry" />
        </mxCell>
        <mxCell id="kMj5f04dgcrr9fPWQqDN-9" value="x" style="text;html=1;align=center;verticalAlign=middle;resizable=0;points=[];autosize=1;strokeColor=none;fillColor=none;fontSize=20;" parent="1" vertex="1">
          <mxGeometry x="380" y="365" width="30" height="40" as="geometry" />
        </mxCell>
        <mxCell id="kMj5f04dgcrr9fPWQqDN-11" value="item_size_kb" style="text;html=1;align=center;verticalAlign=middle;resizable=0;points=[];autosize=1;strokeColor=none;fillColor=none;fontSize=20;" parent="1" vertex="1">
          <mxGeometry x="425" y="355" width="140" height="40" as="geometry" />
        </mxCell>
        <mxCell id="kMj5f04dgcrr9fPWQqDN-12" value="1kb" style="text;html=1;align=center;verticalAlign=middle;resizable=0;points=[];autosize=1;strokeColor=none;fillColor=none;fontSize=20;fontStyle=1" parent="1" vertex="1">
          <mxGeometry x="465" y="389" width="60" height="40" as="geometry" />
        </mxCell>
        <mxCell id="kMj5f04dgcrr9fPWQqDN-13" value="" style="endArrow=none;html=1;rounded=0;" parent="1" edge="1">
          <mxGeometry width="50" height="50" relative="1" as="geometry">
            <mxPoint x="425" y="395" as="sourcePoint" />
            <mxPoint x="550" y="395" as="targetPoint" />
          </mxGeometry>
        </mxCell>
        <mxCell id="kMj5f04dgcrr9fPWQqDN-18" value="(" style="text;html=1;align=center;verticalAlign=middle;resizable=0;points=[];autosize=1;strokeColor=none;fillColor=none;fontSize=62;fontStyle=0" parent="1" vertex="1">
          <mxGeometry x="400" y="340" width="40" height="90" as="geometry" />
        </mxCell>
        <mxCell id="kMj5f04dgcrr9fPWQqDN-19" value=")" style="text;html=1;align=center;verticalAlign=middle;resizable=0;points=[];autosize=1;strokeColor=none;fillColor=none;fontSize=62;fontStyle=0" parent="1" vertex="1">
          <mxGeometry x="540" y="340" width="40" height="90" as="geometry" />
        </mxCell>
        <mxCell id="XSu5oEFkUweP18Es38j--2" value="x 2" style="text;html=1;align=center;verticalAlign=middle;resizable=0;points=[];autosize=1;strokeColor=none;fillColor=none;fontSize=20;" vertex="1" parent="1">
          <mxGeometry x="570" y="365" width="50" height="40" as="geometry" />
        </mxCell>
        <mxCell id="XSu5oEFkUweP18Es38j--3" value="Read Capacity Units (RCU) - Formula" style="text;html=1;align=center;verticalAlign=middle;resizable=0;points=[];autosize=1;strokeColor=none;fillColor=none;fontSize=22;fontStyle=1" vertex="1" parent="1">
          <mxGeometry x="210" y="480" width="410" height="40" as="geometry" />
        </mxCell>
        <mxCell id="XSu5oEFkUweP18Es38j--4" value="items_per_second" style="text;html=1;align=center;verticalAlign=middle;resizable=0;points=[];autosize=1;strokeColor=none;fillColor=none;fontSize=20;" vertex="1" parent="1">
          <mxGeometry x="195" y="555" width="190" height="40" as="geometry" />
        </mxCell>
        <mxCell id="XSu5oEFkUweP18Es38j--5" value="x" style="text;html=1;align=center;verticalAlign=middle;resizable=0;points=[];autosize=1;strokeColor=none;fillColor=none;fontSize=20;" vertex="1" parent="1">
          <mxGeometry x="375" y="555" width="30" height="40" as="geometry" />
        </mxCell>
        <mxCell id="XSu5oEFkUweP18Es38j--6" value="item_size_kb" style="text;html=1;align=center;verticalAlign=middle;resizable=0;points=[];autosize=1;strokeColor=none;fillColor=none;fontSize=20;" vertex="1" parent="1">
          <mxGeometry x="420" y="545" width="140" height="40" as="geometry" />
        </mxCell>
        <mxCell id="XSu5oEFkUweP18Es38j--7" value="4kb" style="text;html=1;align=center;verticalAlign=middle;resizable=0;points=[];autosize=1;strokeColor=none;fillColor=none;fontSize=20;fontStyle=1" vertex="1" parent="1">
          <mxGeometry x="460" y="579" width="60" height="40" as="geometry" />
        </mxCell>
        <mxCell id="XSu5oEFkUweP18Es38j--8" value="" style="endArrow=none;html=1;rounded=0;" edge="1" parent="1">
          <mxGeometry width="50" height="50" relative="1" as="geometry">
            <mxPoint x="420" y="585" as="sourcePoint" />
            <mxPoint x="545" y="585" as="targetPoint" />
          </mxGeometry>
        </mxCell>
        <mxCell id="XSu5oEFkUweP18Es38j--9" value="(" style="text;html=1;align=center;verticalAlign=middle;resizable=0;points=[];autosize=1;strokeColor=none;fillColor=none;fontSize=62;fontStyle=0" vertex="1" parent="1">
          <mxGeometry x="395" y="530" width="40" height="90" as="geometry" />
        </mxCell>
        <mxCell id="XSu5oEFkUweP18Es38j--10" value=")" style="text;html=1;align=center;verticalAlign=middle;resizable=0;points=[];autosize=1;strokeColor=none;fillColor=none;fontSize=62;fontStyle=0" vertex="1" parent="1">
          <mxGeometry x="535" y="530" width="40" height="90" as="geometry" />
        </mxCell>
        <mxCell id="XSu5oEFkUweP18Es38j--11" value="x 2" style="text;html=1;align=center;verticalAlign=middle;resizable=0;points=[];autosize=1;strokeColor=none;fillColor=none;fontSize=20;" vertex="1" parent="1">
          <mxGeometry x="565" y="555" width="50" height="40" as="geometry" />
        </mxCell>
        <mxCell id="XSu5oEFkUweP18Es38j--12" value="&lt;font style=&quot;font-size: 30px;&quot;&gt;TRANSACTIONS&lt;/font&gt;" style="text;html=1;align=center;verticalAlign=middle;resizable=0;points=[];autosize=1;strokeColor=none;fillColor=none;fontStyle=1" vertex="1" parent="1">
          <mxGeometry x="295" y="210" width="260" height="50" as="geometry" />
        </mxCell>
      </root>
    </mxGraphModel>
  </diagram>
</mxfile>
